<svg width="152" height="37" viewBox="0 0 152 37" fill="none" xmlns="http://www.w3.org/2000/svg">
<g filter="url(#filter0_d)">
<path d="M11.6975 2.988C14.5295 2.988 16.6295 3.564 17.9975 4.716C19.3895 5.844 20.0855 7.464 20.0855 9.576V10.44C20.0855 12.696 19.4135 14.436 18.0695 15.66C16.7255 16.884 14.6975 17.496 11.9855 17.496C10.9055 17.496 9.75353 17.4 8.52953 17.208V27H5.46953V3.168C7.50953 3.048 9.58553 2.988 11.6975 2.988ZM11.6255 5.58C10.5695 5.58 9.53753 5.604 8.52953 5.652V14.58C9.96953 14.772 11.0735 14.868 11.8415 14.868C15.2975 14.868 17.0255 13.344 17.0255 10.296V9.684C17.0255 8.316 16.5935 7.296 15.7295 6.624C14.8655 5.928 13.4975 5.58 11.6255 5.58ZM29.6523 9C31.7883 9 33.3723 9.576 34.4043 10.728C35.4603 11.856 35.9883 13.464 35.9883 15.552V20.88C35.9883 22.968 35.4603 24.588 34.4043 25.74C33.3723 26.868 31.7883 27.432 29.6523 27.432C27.5163 27.432 25.9203 26.868 24.8643 25.74C23.8323 24.588 23.3163 22.968 23.3163 20.88V15.552C23.3163 13.464 23.8323 11.856 24.8643 10.728C25.9203 9.576 27.5163 9 29.6523 9ZM29.6523 11.556C28.6203 11.556 27.8163 11.88 27.2403 12.528C26.6643 13.176 26.3763 14.1 26.3763 15.3V21.132C26.3763 22.332 26.6643 23.256 27.2403 23.904C27.8163 24.552 28.6203 24.876 29.6523 24.876C30.6843 24.876 31.4883 24.552 32.0643 23.904C32.6403 23.256 32.9283 22.332 32.9283 21.132V15.264C32.9283 14.064 32.6403 13.152 32.0643 12.528C31.4883 11.88 30.6843 11.556 29.6523 11.556ZM48.3247 9C48.6607 9 48.9247 9.024 49.1167 9.072V12.528C48.7567 12.456 48.2887 12.42 47.7127 12.42C46.0327 12.42 44.7007 13.26 43.7167 14.94V27H40.6567V9.432H43.5367V12.06C44.1847 11.076 44.9047 10.32 45.6967 9.792C46.5127 9.264 47.3887 9 48.3247 9ZM56.8075 9.432H61.4875V11.952H56.8075V22.248C56.8075 23.16 56.9875 23.82 57.3475 24.228C57.7315 24.612 58.3195 24.804 59.1115 24.804C60.1195 24.804 61.1035 24.684 62.0635 24.444L62.1355 27C61.0795 27.288 60.1195 27.432 59.2555 27.432C57.3355 27.432 55.9315 27.012 55.0435 26.172C54.1795 25.308 53.7475 23.916 53.7475 21.996V11.952H51.2275V9.432H53.7475L54.3235 4.752H56.8075V9.432ZM72.3789 1.98C73.1709 1.98 73.9269 2.064 74.6469 2.232V4.68C73.9269 4.56 73.1829 4.5 72.4149 4.5C71.6709 4.5 71.0829 4.74 70.6509 5.22C70.2429 5.7 70.0389 6.432 70.0389 7.416V9.432H73.6389V11.952H70.0389V27H66.9789V11.952H64.4589V9.432H66.9789V7.596C67.0029 5.724 67.4709 4.32 68.3829 3.384C69.2949 2.448 70.6269 1.98 72.3789 1.98ZM82.4218 9C84.5578 9 86.1418 9.576 87.1738 10.728C88.2298 11.856 88.7578 13.464 88.7578 15.552V20.88C88.7578 22.968 88.2298 24.588 87.1738 25.74C86.1418 26.868 84.5578 27.432 82.4218 27.432C80.2858 27.432 78.6898 26.868 77.6338 25.74C76.6018 24.588 76.0858 22.968 76.0858 20.88V15.552C76.0858 13.464 76.6018 11.856 77.6338 10.728C78.6898 9.576 80.2858 9 82.4218 9ZM82.4218 11.556C81.3898 11.556 80.5858 11.88 80.0098 12.528C79.4338 13.176 79.1458 14.1 79.1458 15.3V21.132C79.1458 22.332 79.4338 23.256 80.0098 23.904C80.5858 24.552 81.3898 24.876 82.4218 24.876C83.4538 24.876 84.2578 24.552 84.8338 23.904C85.4098 23.256 85.6978 22.332 85.6978 21.132V15.264C85.6978 14.064 85.4098 13.152 84.8338 12.528C84.2578 11.88 83.4538 11.556 82.4218 11.556ZM96.4863 2.412V27H93.4263V2.412H96.4863ZM104.572 9.432V27H101.512V9.432H104.572ZM103.024 2.34C103.672 2.34 104.164 2.484 104.5 2.772C104.86 3.06 105.04 3.468 105.04 3.996V5.04C105.04 5.568 104.86 5.976 104.5 6.264C104.164 6.528 103.672 6.66 103.024 6.66C102.4 6.66 101.908 6.528 101.548 6.264C101.212 5.976 101.044 5.568 101.044 5.04V3.996C101.044 3.468 101.212 3.06 101.548 2.772C101.908 2.484 102.4 2.34 103.024 2.34ZM115.574 9C117.71 9 119.294 9.576 120.326 10.728C121.382 11.856 121.91 13.464 121.91 15.552V20.88C121.91 22.968 121.382 24.588 120.326 25.74C119.294 26.868 117.71 27.432 115.574 27.432C113.438 27.432 111.842 26.868 110.786 25.74C109.754 24.588 109.238 22.968 109.238 20.88V15.552C109.238 13.464 109.754 11.856 110.786 10.728C111.842 9.576 113.438 9 115.574 9ZM115.574 11.556C114.542 11.556 113.738 11.88 113.162 12.528C112.586 13.176 112.298 14.1 112.298 15.3V21.132C112.298 22.332 112.586 23.256 113.162 23.904C113.738 24.552 114.542 24.876 115.574 24.876C116.606 24.876 117.41 24.552 117.986 23.904C118.562 23.256 118.85 22.332 118.85 21.132V15.264C118.85 14.064 118.562 13.152 117.986 12.528C117.41 11.88 116.606 11.556 115.574 11.556ZM143.715 27L143.535 7.632L138.531 24.552H134.751L129.747 7.632L129.567 27H126.579L126.795 3.42H131.331L136.659 21.816L141.951 3.42H146.487L146.703 27H143.715Z" fill="#0362FC"/>
<path d="M17.9975 4.716L17.3534 5.48091L17.3606 5.48699L17.3679 5.49293L17.9975 4.716ZM18.0695 15.66L17.3962 14.9207L17.3962 14.9207L18.0695 15.66ZM8.52953 17.208L8.6845 16.2201L7.52953 16.0389V17.208H8.52953ZM8.52953 27V28H9.52953V27H8.52953ZM5.46953 27H4.46953V28H5.46953V27ZM5.46953 3.168L5.41081 2.16972L4.46953 2.22509V3.168H5.46953ZM8.52953 5.652L8.48197 4.65313L7.52953 4.69848V5.652H8.52953ZM8.52953 14.58H7.52953V15.4555L8.39737 15.5712L8.52953 14.58ZM15.7295 6.624L15.1022 7.40275L15.1089 7.40811L15.1156 7.41335L15.7295 6.624ZM11.6975 3.988C14.4236 3.988 16.2448 4.54738 17.3534 5.48091L18.6417 3.95109C17.0142 2.58062 14.6355 1.988 11.6975 1.988V3.988ZM17.3679 5.49293C18.4826 6.39619 19.0855 7.70547 19.0855 9.576H21.0855C21.0855 7.22253 20.2965 5.2918 18.6271 3.93907L17.3679 5.49293ZM19.0855 9.576V10.44H21.0855V9.576H19.0855ZM19.0855 10.44C19.0855 12.4875 18.4837 13.9302 17.3962 14.9207L18.7429 16.3993C20.3433 14.9418 21.0855 12.9045 21.0855 10.44H19.0855ZM17.3962 14.9207C16.309 15.9108 14.5681 16.496 11.9855 16.496V18.496C14.8269 18.496 17.1421 17.8572 18.7429 16.3993L17.3962 14.9207ZM11.9855 16.496C10.9643 16.496 9.86454 16.4052 8.6845 16.2201L8.37456 18.1959C9.64253 18.3948 10.8467 18.496 11.9855 18.496V16.496ZM7.52953 17.208V27H9.52953V17.208H7.52953ZM8.52953 26H5.46953V28H8.52953V26ZM6.46953 27V3.168H4.46953V27H6.46953ZM5.52825 4.16627C7.54806 4.04746 9.60447 3.988 11.6975 3.988V1.988C9.5666 1.988 7.471 2.04854 5.41081 2.16972L5.52825 4.16627ZM11.6255 4.58C10.5544 4.58 9.50652 4.60434 8.48197 4.65313L8.5771 6.65087C9.56854 6.60366 10.5847 6.58 11.6255 6.58V4.58ZM7.52953 5.652V14.58H9.52953V5.652H7.52953ZM8.39737 15.5712C9.8499 15.7649 11.0062 15.868 11.8415 15.868V13.868C11.1409 13.868 10.0892 13.7791 8.6617 13.5888L8.39737 15.5712ZM11.8415 15.868C13.6949 15.868 15.2718 15.4621 16.391 14.475C17.5342 13.4668 18.0255 12.009 18.0255 10.296H16.0255C16.0255 11.631 15.6529 12.4592 15.0681 12.975C14.4593 13.5119 13.4441 13.868 11.8415 13.868V15.868ZM18.0255 10.296V9.684H16.0255V10.296H18.0255ZM18.0255 9.684C18.0255 8.09236 17.5111 6.74277 16.3435 5.83465L15.1156 7.41335C15.676 7.84922 16.0255 8.53964 16.0255 9.684H18.0255ZM16.3569 5.84524C15.2288 4.93656 13.5825 4.58 11.6255 4.58V6.58C13.4125 6.58 14.5022 6.91944 15.1022 7.40275L16.3569 5.84524ZM34.4043 10.728L33.6594 11.3952L33.6667 11.4034L33.6742 11.4114L34.4043 10.728ZM34.4043 25.74L33.6671 25.0643L33.6664 25.065L34.4043 25.74ZM24.8643 25.74L24.1194 26.4072L24.1267 26.4154L24.1342 26.4234L24.8643 25.74ZM24.8643 10.728L24.1271 10.0523L24.1264 10.053L24.8643 10.728ZM27.2403 12.528L27.9877 13.1924L27.9877 13.1924L27.2403 12.528ZM27.2403 23.904L27.9877 23.2396L27.9877 23.2396L27.2403 23.904ZM32.0643 23.904L31.3168 23.2396L31.3168 23.2396L32.0643 23.904ZM32.0643 12.528L31.3168 13.1924L31.3231 13.1994L31.3294 13.2063L32.0643 12.528ZM29.6523 10C31.6164 10 32.881 10.5264 33.6594 11.3952L35.1491 10.0608C33.8635 8.62563 31.9601 8 29.6523 8V10ZM33.6742 11.4114C34.5033 12.2971 34.9883 13.627 34.9883 15.552H36.9883C36.9883 13.301 36.4172 11.4149 35.1343 10.0446L33.6742 11.4114ZM34.9883 15.552V20.88H36.9883V15.552H34.9883ZM34.9883 20.88C34.9883 22.8035 34.5039 24.1514 33.6671 25.0643L35.1414 26.4157C36.4166 25.0246 36.9883 23.1325 36.9883 20.88H34.9883ZM33.6664 25.065C32.8895 25.9142 31.6224 26.432 29.6523 26.432V28.432C31.9541 28.432 33.855 27.8218 35.1421 26.415L33.6664 25.065ZM29.6523 26.432C27.6839 26.432 26.3978 25.9148 25.5943 25.0566L24.1342 26.4234C25.4427 27.8212 27.3486 28.432 29.6523 28.432V26.432ZM25.6091 25.0728C24.7915 24.1601 24.3163 22.809 24.3163 20.88H22.3163C22.3163 23.127 22.873 25.0159 24.1194 26.4072L25.6091 25.0728ZM24.3163 20.88V15.552H22.3163V20.88H24.3163ZM24.3163 15.552C24.3163 13.6215 24.7921 12.2883 25.6021 11.403L24.1264 10.053C22.8724 11.4237 22.3163 13.3065 22.3163 15.552H24.3163ZM25.6014 11.4037C26.4062 10.5257 27.6898 10 29.6523 10V8C27.3427 8 25.4343 8.62626 24.1271 10.0523L25.6014 11.4037ZM29.6523 10.556C28.3941 10.556 27.2948 10.9614 26.4928 11.8636L27.9877 13.1924C28.3377 12.7986 28.8464 12.556 29.6523 12.556V10.556ZM26.4928 11.8636C25.7009 12.7546 25.3763 13.9493 25.3763 15.3H27.3763C27.3763 14.2507 27.6276 13.5974 27.9877 13.1924L26.4928 11.8636ZM25.3763 15.3V21.132H27.3763V15.3H25.3763ZM25.3763 21.132C25.3763 22.4827 25.7009 23.6774 26.4928 24.5684L27.9877 23.2396C27.6276 22.8346 27.3763 22.1813 27.3763 21.132H25.3763ZM26.4928 24.5684C27.2948 25.4706 28.3941 25.876 29.6523 25.876V23.876C28.8464 23.876 28.3377 23.6334 27.9877 23.2396L26.4928 24.5684ZM29.6523 25.876C30.9104 25.876 32.0097 25.4706 32.8117 24.5684L31.3168 23.2396C30.9668 23.6334 30.4581 23.876 29.6523 23.876V25.876ZM32.8117 24.5684C33.6036 23.6774 33.9283 22.4827 33.9283 21.132H31.9283C31.9283 22.1813 31.6769 22.8346 31.3168 23.2396L32.8117 24.5684ZM33.9283 21.132V15.264H31.9283V21.132H33.9283ZM33.9283 15.264C33.9283 13.9164 33.6049 12.7227 32.7991 11.8497L31.3294 13.2063C31.6756 13.5813 31.9283 14.2116 31.9283 15.264H33.9283ZM32.8117 11.8636C32.0097 10.9614 30.9104 10.556 29.6523 10.556V12.556C30.4581 12.556 30.9668 12.7986 31.3168 13.1924L32.8117 11.8636ZM49.1167 9.072H50.1167V8.29122L49.3593 8.10186L49.1167 9.072ZM49.1167 12.528L48.9206 13.5086L50.1167 13.7478V12.528H49.1167ZM43.7167 14.94L42.8538 14.4346L42.7167 14.6687V14.94H43.7167ZM43.7167 27V28H44.7167V27H43.7167ZM40.6567 27H39.6567V28H40.6567V27ZM40.6567 9.432V8.432H39.6567V9.432H40.6567ZM43.5367 9.432H44.5367V8.432H43.5367V9.432ZM43.5367 12.06H42.5367V15.3967L44.3719 12.61L43.5367 12.06ZM45.6967 9.792L45.1534 8.95235L45.142 8.95995L45.6967 9.792ZM48.3247 10C48.6272 10 48.7976 10.023 48.8742 10.0421L49.3593 8.10186C49.0518 8.025 48.6942 8 48.3247 8V10ZM48.1167 9.072V12.528H50.1167V9.072H48.1167ZM49.3128 11.5474C48.8626 11.4574 48.3219 11.42 47.7127 11.42V13.42C48.2555 13.42 48.6508 13.4546 48.9206 13.5086L49.3128 11.5474ZM47.7127 11.42C45.6153 11.42 43.9833 12.5062 42.8538 14.4346L44.5796 15.4454C45.4181 14.0138 46.4502 13.42 47.7127 13.42V11.42ZM42.7167 14.94V27H44.7167V14.94H42.7167ZM43.7167 26H40.6567V28H43.7167V26ZM41.6567 27V9.432H39.6567V27H41.6567ZM40.6567 10.432H43.5367V8.432H40.6567V10.432ZM42.5367 9.432V12.06H44.5367V9.432H42.5367ZM44.3719 12.61C44.9632 11.712 45.594 11.0624 46.2514 10.624L45.142 8.95995C44.2155 9.57764 43.4062 10.44 42.7015 11.51L44.3719 12.61ZM46.24 10.6316C46.9007 10.204 47.5891 10 48.3247 10V8C47.1883 8 46.1248 8.32395 45.1535 8.95243L46.24 10.6316ZM56.8075 9.432H55.8075V10.432H56.8075V9.432ZM61.4875 9.432H62.4875V8.432H61.4875V9.432ZM61.4875 11.952V12.952H62.4875V11.952H61.4875ZM56.8075 11.952V10.952H55.8075V11.952H56.8075ZM57.3475 24.228L56.5977 24.8896L56.6183 24.913L56.6404 24.9351L57.3475 24.228ZM62.0635 24.444L63.0631 24.4158L63.0281 23.1721L61.821 23.4739L62.0635 24.444ZM62.1355 27L62.3986 27.9648L63.1572 27.7579L63.1351 26.9718L62.1355 27ZM55.0435 26.172L54.3364 26.8791L54.3462 26.8889L54.3563 26.8985L55.0435 26.172ZM53.7475 11.952H54.7475V10.952H53.7475V11.952ZM51.2275 11.952H50.2275V12.952H51.2275V11.952ZM51.2275 9.432V8.432H50.2275V9.432H51.2275ZM53.7475 9.432V10.432H54.632L54.74 9.55415L53.7475 9.432ZM54.3235 4.752V3.752H53.439L53.331 4.62984L54.3235 4.752ZM56.8075 4.752H57.8075V3.752H56.8075V4.752ZM56.8075 10.432H61.4875V8.432H56.8075V10.432ZM60.4875 9.432V11.952H62.4875V9.432H60.4875ZM61.4875 10.952H56.8075V12.952H61.4875V10.952ZM55.8075 11.952V22.248H57.8075V11.952H55.8075ZM55.8075 22.248C55.8075 23.251 55.9981 24.2101 56.5977 24.8896L58.0973 23.5664C57.9769 23.4299 57.8075 23.069 57.8075 22.248H55.8075ZM56.6404 24.9351C57.2832 25.5779 58.1758 25.804 59.1115 25.804V23.804C58.4632 23.804 58.1798 23.6461 58.0546 23.5209L56.6404 24.9351ZM59.1115 25.804C60.1997 25.804 61.2652 25.6743 62.306 25.4141L61.821 23.4739C60.9418 23.6937 60.0393 23.804 59.1115 23.804V25.804ZM61.0639 24.4722L61.1359 27.0282L63.1351 26.9718L63.0631 24.4158L61.0639 24.4722ZM61.8724 26.0352C60.8805 26.3058 60.0107 26.432 59.2555 26.432V28.432C60.2283 28.432 61.2785 28.2702 62.3986 27.9648L61.8724 26.0352ZM59.2555 26.432C57.4508 26.432 56.3514 26.0327 55.7307 25.4455L54.3563 26.8985C55.5116 27.9913 57.2202 28.432 59.2555 28.432V26.432ZM55.7506 25.4649C55.1573 24.8716 54.7475 23.7977 54.7475 21.996H52.7475C52.7475 24.0343 53.2017 25.7444 54.3364 26.8791L55.7506 25.4649ZM54.7475 21.996V11.952H52.7475V21.996H54.7475ZM53.7475 10.952H51.2275V12.952H53.7475V10.952ZM52.2275 11.952V9.432H50.2275V11.952H52.2275ZM51.2275 10.432H53.7475V8.432H51.2275V10.432ZM54.74 9.55415L55.316 4.87415L53.331 4.62984L52.755 9.30984L54.74 9.55415ZM54.3235 5.752H56.8075V3.752H54.3235V5.752ZM55.8075 4.752V9.432H57.8075V4.752H55.8075ZM74.6469 2.232H75.6469V1.43847L74.8741 1.25816L74.6469 2.232ZM74.6469 4.68L74.4825 5.66639L75.6469 5.86046V4.68H74.6469ZM70.6509 5.22L69.9076 4.55103L69.8981 4.56156L69.889 4.57235L70.6509 5.22ZM70.0389 9.432H69.0389V10.432H70.0389V9.432ZM73.6389 9.432H74.6389V8.432H73.6389V9.432ZM73.6389 11.952V12.952H74.6389V11.952H73.6389ZM70.0389 11.952V10.952H69.0389V11.952H70.0389ZM70.0389 27V28H71.0389V27H70.0389ZM66.9789 27H65.9789V28H66.9789V27ZM66.9789 11.952H67.9789V10.952H66.9789V11.952ZM64.4589 11.952H63.4589V12.952H64.4589V11.952ZM64.4589 9.432V8.432H63.4589V9.432H64.4589ZM66.9789 9.432V10.432H67.9789V9.432H66.9789ZM66.9789 7.596L65.9789 7.58318V7.596H66.9789ZM68.3829 3.384L69.0991 4.08186L69.0991 4.08186L68.3829 3.384ZM72.3789 2.98C73.0998 2.98 73.7793 3.05641 74.4197 3.20584L74.8741 1.25816C74.0746 1.07159 73.242 0.979998 72.3789 0.979998V2.98ZM73.6469 2.232V4.68H75.6469V2.232H73.6469ZM74.8113 3.69361C74.0342 3.56409 73.2351 3.5 72.4149 3.5V5.5C73.1307 5.5 73.8196 5.55591 74.4825 5.66639L74.8113 3.69361ZM72.4149 3.5C71.435 3.5 70.5589 3.82739 69.9076 4.55103L71.3942 5.88896C71.6069 5.65261 71.9068 5.5 72.4149 5.5V3.5ZM69.889 4.57235C69.2614 5.31061 69.0389 6.32138 69.0389 7.416H71.0389C71.0389 6.54262 71.2244 6.08938 71.4128 5.86765L69.889 4.57235ZM69.0389 7.416V9.432H71.0389V7.416H69.0389ZM70.0389 10.432H73.6389V8.432H70.0389V10.432ZM72.6389 9.432V11.952H74.6389V9.432H72.6389ZM73.6389 10.952H70.0389V12.952H73.6389V10.952ZM69.0389 11.952V27H71.0389V11.952H69.0389ZM70.0389 26H66.9789V28H70.0389V26ZM67.9789 27V11.952H65.9789V27H67.9789ZM66.9789 10.952H64.4589V12.952H66.9789V10.952ZM65.4589 11.952V9.432H63.4589V11.952H65.4589ZM64.4589 10.432H66.9789V8.432H64.4589V10.432ZM67.9789 9.432V7.596H65.9789V9.432H67.9789ZM67.9788 7.60882C68.001 5.88241 68.4306 4.76796 69.0991 4.08186L67.6667 2.68613C66.5112 3.87203 66.0049 5.56558 65.979 7.58318L67.9788 7.60882ZM69.0991 4.08186C69.7655 3.39794 70.8015 2.98 72.3789 2.98V0.979998C70.4523 0.979998 68.8243 1.49806 67.6667 2.68614L69.0991 4.08186ZM87.1738 10.728L86.4289 11.3952L86.4363 11.4034L86.4438 11.4114L87.1738 10.728ZM87.1738 25.74L86.4366 25.0643L86.436 25.065L87.1738 25.74ZM77.6338 25.74L76.8889 26.4072L76.8963 26.4154L76.9038 26.4234L77.6338 25.74ZM77.6338 10.728L76.8966 10.0523L76.896 10.053L77.6338 10.728ZM80.0098 12.528L80.7572 13.1924L80.7572 13.1924L80.0098 12.528ZM80.0098 23.904L80.7572 23.2396L80.7572 23.2396L80.0098 23.904ZM84.8338 23.904L84.0864 23.2396L84.0864 23.2396L84.8338 23.904ZM84.8338 12.528L84.0864 13.1924L84.0926 13.1994L84.099 13.2063L84.8338 12.528ZM82.4218 10C84.386 10 85.6506 10.5264 86.4289 11.3952L87.9186 10.0608C86.633 8.62563 84.7296 8 82.4218 8V10ZM86.4438 11.4114C87.2729 12.2971 87.7578 13.627 87.7578 15.552H89.7578C89.7578 13.301 89.1867 11.4149 87.9038 10.0446L86.4438 11.4114ZM87.7578 15.552V20.88H89.7578V15.552H87.7578ZM87.7578 20.88C87.7578 22.8035 87.2734 24.1514 86.4366 25.0643L87.9109 26.4157C89.1861 25.0246 89.7578 23.1325 89.7578 20.88H87.7578ZM86.436 25.065C85.6591 25.9142 84.3919 26.432 82.4218 26.432V28.432C84.7236 28.432 86.6245 27.8218 87.9116 26.415L86.436 25.065ZM82.4218 26.432C80.4534 26.432 79.1673 25.9148 78.3638 25.0566L76.9038 26.4234C78.2123 27.8212 80.1181 28.432 82.4218 28.432V26.432ZM78.3786 25.0728C77.5611 24.1601 77.0858 22.809 77.0858 20.88H75.0858C75.0858 23.127 75.6425 25.0159 76.8889 26.4072L78.3786 25.0728ZM77.0858 20.88V15.552H75.0858V20.88H77.0858ZM77.0858 15.552C77.0858 13.6215 77.5616 12.2883 78.3716 11.403L76.896 10.053C75.6419 11.4237 75.0858 13.3065 75.0858 15.552H77.0858ZM78.3709 11.4037C79.1758 10.5257 80.4593 10 82.4218 10V8C80.1122 8 78.2038 8.62626 76.8966 10.0523L78.3709 11.4037ZM82.4218 10.556C81.1636 10.556 80.0644 10.9614 79.2624 11.8636L80.7572 13.1924C81.1072 12.7986 81.616 12.556 82.4218 12.556V10.556ZM79.2624 11.8636C78.4704 12.7546 78.1458 13.9493 78.1458 15.3H80.1458C80.1458 14.2507 80.3972 13.5974 80.7572 13.1924L79.2624 11.8636ZM78.1458 15.3V21.132H80.1458V15.3H78.1458ZM78.1458 21.132C78.1458 22.4827 78.4704 23.6774 79.2624 24.5684L80.7572 23.2396C80.3972 22.8346 80.1458 22.1813 80.1458 21.132H78.1458ZM79.2624 24.5684C80.0644 25.4706 81.1636 25.876 82.4218 25.876V23.876C81.616 23.876 81.1072 23.6334 80.7572 23.2396L79.2624 24.5684ZM82.4218 25.876C83.68 25.876 84.7792 25.4706 85.5812 24.5684L84.0864 23.2396C83.7364 23.6334 83.2276 23.876 82.4218 23.876V25.876ZM85.5812 24.5684C86.3732 23.6774 86.6978 22.4827 86.6978 21.132H84.6978C84.6978 22.1813 84.4464 22.8346 84.0864 23.2396L85.5812 24.5684ZM86.6978 21.132V15.264H84.6978V21.132H86.6978ZM86.6978 15.264C86.6978 13.9164 86.3744 12.7227 85.5686 11.8497L84.099 13.2063C84.4452 13.5813 84.6978 14.2116 84.6978 15.264H86.6978ZM85.5812 11.8636C84.7792 10.9614 83.68 10.556 82.4218 10.556V12.556C83.2276 12.556 83.7364 12.7986 84.0864 13.1924L85.5812 11.8636ZM96.4863 2.412H97.4863V1.412H96.4863V2.412ZM96.4863 27V28H97.4863V27H96.4863ZM93.4263 27H92.4263V28H93.4263V27ZM93.4263 2.412V1.412H92.4263V2.412H93.4263ZM95.4863 2.412V27H97.4863V2.412H95.4863ZM96.4863 26H93.4263V28H96.4863V26ZM94.4263 27V2.412H92.4263V27H94.4263ZM93.4263 3.412H96.4863V1.412H93.4263V3.412ZM104.572 9.432H105.572V8.432H104.572V9.432ZM104.572 27V28H105.572V27H104.572ZM101.512 27H100.512V28H101.512V27ZM101.512 9.432V8.432H100.512V9.432H101.512ZM104.5 2.772L103.849 3.53125L103.862 3.54228L103.875 3.55287L104.5 2.772ZM104.5 6.264L105.118 7.05035L105.125 7.04487L104.5 6.264ZM101.548 6.264L100.897 7.02326L100.926 7.04796L100.957 7.0704L101.548 6.264ZM101.548 2.772L100.923 1.99113L100.91 2.00172L100.897 2.01274L101.548 2.772ZM103.572 9.432V27H105.572V9.432H103.572ZM104.572 26H101.512V28H104.572V26ZM102.512 27V9.432H100.512V27H102.512ZM101.512 10.432H104.572V8.432H101.512V10.432ZM103.024 3.34C103.542 3.34 103.763 3.45688 103.849 3.53125L105.151 2.01274C104.566 1.51112 103.803 1.34 103.024 1.34V3.34ZM103.875 3.55287C103.962 3.62205 104.04 3.72203 104.04 3.996H106.04C106.04 3.21397 105.758 2.49795 105.125 1.99113L103.875 3.55287ZM104.04 3.996V5.04H106.04V3.996H104.04ZM104.04 5.04C104.04 5.31397 103.962 5.41395 103.875 5.48313L105.125 7.04487C105.758 6.53805 106.04 5.82203 106.04 5.04H104.04ZM103.882 5.47768C103.793 5.54786 103.558 5.66 103.024 5.66V7.66C103.786 7.66 104.535 7.50814 105.118 7.05032L103.882 5.47768ZM103.024 5.66C102.53 5.66 102.272 5.55455 102.14 5.45759L100.957 7.0704C101.545 7.50145 102.27 7.66 103.024 7.66V5.66ZM102.199 5.50474C102.128 5.44367 102.044 5.33808 102.044 5.04H100.044C100.044 5.79792 100.297 6.50833 100.897 7.02326L102.199 5.50474ZM102.044 5.04V3.996H100.044V5.04H102.044ZM102.044 3.996C102.044 3.69792 102.128 3.59232 102.199 3.53125L100.897 2.01274C100.297 2.52767 100.044 3.23808 100.044 3.996H102.044ZM102.173 3.55287C102.302 3.44967 102.547 3.34 103.024 3.34V1.34C102.253 1.34 101.515 1.51832 100.923 1.99113L102.173 3.55287ZM120.326 10.728L119.581 11.3952L119.589 11.4034L119.596 11.4114L120.326 10.728ZM120.326 25.74L119.589 25.0643L119.588 25.065L120.326 25.74ZM110.786 25.74L110.041 26.4072L110.049 26.4154L110.056 26.4234L110.786 25.74ZM110.786 10.728L110.049 10.0523L110.048 10.053L110.786 10.728ZM113.162 12.528L113.91 13.1924L113.91 13.1924L113.162 12.528ZM113.162 23.904L113.91 23.2396L113.91 23.2396L113.162 23.904ZM117.986 23.904L117.239 23.2396L117.239 23.2396L117.986 23.904ZM117.986 12.528L117.239 13.1924L117.245 13.1994L117.251 13.2063L117.986 12.528ZM115.574 10C117.538 10 118.803 10.5264 119.581 11.3952L121.071 10.0608C119.785 8.62563 117.882 8 115.574 8V10ZM119.596 11.4114C120.425 12.2971 120.91 13.627 120.91 15.552H122.91C122.91 13.301 122.339 11.4149 121.056 10.0446L119.596 11.4114ZM120.91 15.552V20.88H122.91V15.552H120.91ZM120.91 20.88C120.91 22.8035 120.426 24.1514 119.589 25.0643L121.063 26.4157C122.338 25.0246 122.91 23.1325 122.91 20.88H120.91ZM119.588 25.065C118.811 25.9142 117.544 26.432 115.574 26.432V28.432C117.876 28.432 119.777 27.8218 121.064 26.415L119.588 25.065ZM115.574 26.432C113.606 26.432 112.32 25.9148 111.516 25.0566L110.056 26.4234C111.365 27.8212 113.27 28.432 115.574 28.432V26.432ZM111.531 25.0728C110.713 24.1601 110.238 22.809 110.238 20.88H108.238C108.238 23.127 108.795 25.0159 110.041 26.4072L111.531 25.0728ZM110.238 20.88V15.552H108.238V20.88H110.238ZM110.238 15.552C110.238 13.6215 110.714 12.2883 111.524 11.403L110.048 10.053C108.794 11.4237 108.238 13.3065 108.238 15.552H110.238ZM111.523 11.4037C112.328 10.5257 113.612 10 115.574 10V8C113.265 8 111.356 8.62626 110.049 10.0523L111.523 11.4037ZM115.574 10.556C114.316 10.556 113.217 10.9614 112.415 11.8636L113.91 13.1924C114.26 12.7986 114.768 12.556 115.574 12.556V10.556ZM112.415 11.8636C111.623 12.7546 111.298 13.9493 111.298 15.3H113.298C113.298 14.2507 113.55 13.5974 113.91 13.1924L112.415 11.8636ZM111.298 15.3V21.132H113.298V15.3H111.298ZM111.298 21.132C111.298 22.4827 111.623 23.6774 112.415 24.5684L113.91 23.2396C113.55 22.8346 113.298 22.1813 113.298 21.132H111.298ZM112.415 24.5684C113.217 25.4706 114.316 25.876 115.574 25.876V23.876C114.768 23.876 114.26 23.6334 113.91 23.2396L112.415 24.5684ZM115.574 25.876C116.832 25.876 117.932 25.4706 118.734 24.5684L117.239 23.2396C116.889 23.6334 116.38 23.876 115.574 23.876V25.876ZM118.734 24.5684C119.526 23.6774 119.85 22.4827 119.85 21.132H117.85C117.85 22.1813 117.599 22.8346 117.239 23.2396L118.734 24.5684ZM119.85 21.132V15.264H117.85V21.132H119.85ZM119.85 15.264C119.85 13.9164 119.527 12.7227 118.721 11.8497L117.251 13.2063C117.598 13.5813 117.85 14.2116 117.85 15.264H119.85ZM118.734 11.8636C117.932 10.9614 116.832 10.556 115.574 10.556V12.556C116.38 12.556 116.889 12.7986 117.239 13.1924L118.734 11.8636ZM143.715 27L142.715 27.0093L142.724 28H143.715V27ZM143.535 7.632L144.535 7.62271L142.576 7.3484L143.535 7.632ZM138.531 24.552V25.552H139.278L139.49 24.8356L138.531 24.552ZM134.751 24.552L133.792 24.8356L134.004 25.552H134.751V24.552ZM129.747 7.632L130.706 7.3484L128.747 7.62271L129.747 7.632ZM129.567 27V28H130.557L130.567 27.0093L129.567 27ZM126.579 27L125.579 26.9908L125.569 28H126.579V27ZM126.795 3.42V2.42H125.804L125.795 3.41084L126.795 3.42ZM131.331 3.42L132.291 3.1418L132.082 2.42H131.331V3.42ZM136.659 21.816L135.698 22.0942L136.662 25.4218L137.62 22.0925L136.659 21.816ZM141.951 3.42V2.42H141.198L140.99 3.14354L141.951 3.42ZM146.487 3.42L147.487 3.41084L147.477 2.42H146.487V3.42ZM146.703 27V28H147.712L147.703 26.9908L146.703 27ZM144.715 26.9907L144.535 7.62271L142.535 7.64129L142.715 27.0093L144.715 26.9907ZM142.576 7.3484L137.572 24.2684L139.49 24.8356L144.494 7.9156L142.576 7.3484ZM138.531 23.552H134.751V25.552H138.531V23.552ZM135.71 24.2684L130.706 7.3484L128.788 7.9156L133.792 24.8356L135.71 24.2684ZM128.747 7.62271L128.567 26.9907L130.567 27.0093L130.747 7.64129L128.747 7.62271ZM129.567 26H126.579V28H129.567V26ZM127.579 27.0092L127.795 3.42916L125.795 3.41084L125.579 26.9908L127.579 27.0092ZM126.795 4.42H131.331V2.42H126.795V4.42ZM130.37 3.69819L135.698 22.0942L137.619 21.5378L132.291 3.1418L130.37 3.69819ZM137.62 22.0925L142.912 3.69646L140.99 3.14354L135.698 21.5395L137.62 22.0925ZM141.951 4.42H146.487V2.42H141.951V4.42ZM145.487 3.42916L145.703 27.0092L147.703 26.9908L147.487 3.41084L145.487 3.42916ZM146.703 26H143.715V28H146.703V26Z" fill="#0362FC"/>
</g>
<defs>
<filter id="filter0_d" x="0.469528" y="0.979996" width="151.242" height="35.452" filterUnits="userSpaceOnUse" color-interpolation-filters="sRGB">
<feFlood flood-opacity="0" result="BackgroundImageFix"/>
<feColorMatrix in="SourceAlpha" type="matrix" values="0 0 0 0 0 0 0 0 0 0 0 0 0 0 0 0 0 0 127 0" result="hardAlpha"/>
<feOffset dy="4"/>
<feGaussianBlur stdDeviation="2"/>
<feComposite in2="hardAlpha" operator="out"/>
<feColorMatrix type="matrix" values="0 0 0 0 0 0 0 0 0 0 0 0 0 0 0 0 0 0 0.25 0"/>
<feBlend mode="normal" in2="BackgroundImageFix" result="effect1_dropShadow"/>
<feBlend mode="normal" in="SourceGraphic" in2="effect1_dropShadow" result="shape"/>
</filter>
</defs>
</svg>
