<svg width="460" height="90" fill="none" xmlns="http://www.w3.org/2000/svg"><path d="M75.815 66.42c-3.767 1.102-8.177 1.745-13.321 2.02 3.766-6.155 14.24-30.132 19.016-45.29v33.623c0 4.134-1.01 8.268-5.695 9.646zm-32.98.367c.275-7.809-.276-27.836-.643-38.033C41.548 8.176 68.098 18.098 81.97 16.72v.367c-7.442 13.78-22.416 31.235-31.602 38.768 10.84 7.808 11.207 12.677 6.798 12.677h-.276c-4.96-.367-9.738-.735-14.055-1.745zm-1.378-50.71c-10.84-5.512-28.479-7.533-39.779-5.145C-1.445 26.366.3 46.852 2.781 62.652c1.102 7.81 1.745 8.912 7.441 7.166 22.14-6.155 41.8 6.156 63.847.644 7.441-1.746 10.197-5.512 10.565-12.31l1.102-45.29c-11.3.459-36.838-3.951-44.28 3.215zM259.639 35.92c-2.296 0-7.441-3.767-11.575-3.767-2.296 0-4.501 1.103-4.501 3.767 0 6.155 22.415 5.144 22.415 19.843 0 8.544-7.165 15.434-18.281 15.434-7.166 0-18.006-4.043-18.006-10.014 0-2.021 2.021-5.788 5.42-5.788 5.145 0 7.166 4.502 13.321 4.502 4.042 0 5.144-1.378 5.144-3.767 0-5.787-22.415-5.144-22.415-19.843 0-8.91 7.165-15.158 17.362-15.158 6.799-.367 16.628 2.389 16.628 8.911-.092 3.124-2.48 5.88-5.512 5.88zm-147.905-2.756h-2.756c-3.399 0-5.787-2.021-5.787-5.788 0-3.123 2.297-5.787 5.787-5.787h2.756v-6.89C111.734 5.145 117.522 0 125.331 0c3.399 0 7.808 1.378 7.808 5.788 0 3.766-1.745 5.512-4.777 5.512-2.021 0-3.766 0-3.766 4.869v5.511h3.123c3.767 0 6.063 1.378 6.063 5.788 0 5.788-2.296 5.788-6.063 5.788h-3.123v30.132c0 4.501-2.756 7.165-6.523 7.165-3.766 0-6.522-2.756-6.522-7.165V33.256h.183v-.092zm26.825-25.631c0-4.501 2.756-7.166 6.523-7.166 3.766 0 6.522 2.756 6.522 7.166V63.02c0 4.502-2.756 7.166-6.522 7.166-3.767 0-6.523-2.756-6.523-7.166V7.533zm35.093 2.021c0 4.042-3.123 7.533-7.165 7.533-3.767 0-7.166-3.399-7.166-7.533 0-3.766 3.399-7.165 7.166-7.165 3.674-.092 7.165 3.399 7.165 7.165zM159.689 29.03c0-4.502 2.756-7.166 6.522-7.166 3.767 0 6.523 2.756 6.523 7.166v34.633c0 4.502-2.756 7.166-6.523 7.166-3.766 0-6.522-2.756-6.522-7.166V29.03zm43.177 29.856c6.798 0 10.197-7.165 10.197-12.953 0-6.155-3.399-13.412-10.197-13.412-6.798 0-10.197 6.522-10.197 12.677 0 6.523 3.031 13.688 10.197 13.688zm-23.059-30.5c0-4.5 2.756-7.165 6.523-7.165 3.766 0 5.788 2.021 6.522 5.512 2.297-4.042 7.442-5.788 12.219-5.788 13.963 0 20.761 12.954 20.761 25.631 0 12.31-8.176 24.345-21.404 24.345-4.042 0-8.544-1.378-11.943-4.502V82.22c0 4.502-2.756 7.166-6.523 7.166-3.766 0-6.522-2.756-6.522-7.166V28.48h.367v-.092zm93.061 0c0-4.5 2.756-7.165 6.523-7.165 3.399 0 5.42 1.746 5.787 4.87 2.297-3.4 6.523-5.513 12.586-5.513 10.197 0 17.638 6.523 17.638 17.455v24.895c0 4.502-2.756 7.166-6.522 7.166-3.767 0-6.523-2.756-6.523-7.165V40.236c0-6.155-3.766-8.91-8.543-8.91-5.42 0-8.176 3.766-8.176 8.91v22.691c0 4.502-2.756 7.166-6.523 7.166s-6.523-2.756-6.523-7.165V28.386h.276zm72.391 30.5c6.798 0 9.921-6.89 9.921-12.953 0-6.155-3.123-13.412-9.921-13.412-7.166 0-10.197 7.165-10.197 13.412-.368 6.063 3.123 12.953 10.197 12.953zm22.783 3.032c0 3.399 0 8.544-6.063 8.544-3.767 0-5.421-2.022-6.064-5.512-3.399 4.042-7.441 6.155-12.218 6.155-12.218 0-21.405-10.29-21.405-24.988 0-14.423 9.462-25.355 21.405-25.355 4.777 0 9.462 2.02 12.218 5.787.276-3.123 3.124-5.512 6.064-5.512 6.063 0 6.063 5.145 6.063 8.544v32.337zm39.686-26.733c-3.123 0-6.063-2.389-10.197-2.389-7.441 0-10.84 6.523-10.84 13.413 0 6.522 3.766 12.953 10.84 12.953 3.123 0 8.176-2.756 9.462-2.756 3.124 0 5.42 2.756 5.42 5.788 0 6.89-11.208 8.91-15.617 8.91-13.964 0-23.059-11.299-23.059-24.987 0-13.413 9.463-25.355 23.059-25.355 5.144 0 15.617 2.02 15.617 8.268.459 2.756-1.562 6.155-4.685 6.155zm10.565-27.009c0-4.501 2.756-7.165 6.522-7.165 3.767 0 6.523 2.756 6.523 7.165v30.5l14.239-13.78c2.021-2.021 4.042-2.756 5.788-2.756 3.123 0 5.42 3.123 5.42 5.787 0 2.021-.643 3.4-2.297 5.145L442.913 43.36l15.342 17.822c1.102 1.378 1.745 2.756 1.745 4.502 0 3.398-2.756 6.154-6.063 6.154-2.297 0-4.042-1.377-6.063-4.042L432.256 48.23h-.275v15.893c0 4.501-2.756 7.165-6.523 7.165-3.766 0-6.522-2.756-6.522-7.165l-.643-55.947z" fill="#0362FC"/></svg>